<svg width="35" height="26" viewBox="0 0 35 26" fill="none" xmlns="http://www.w3.org/2000/svg">
<path d="M31.4595 24.8182C31.4595 25.1316 31.3351 25.4322 31.1138 25.6539C30.8925 25.8755 30.5923 26 30.2793 26H9.03608C8.72308 26 8.4229 25.8755 8.20157 25.6539C7.98025 25.4322 7.85591 25.1316 7.85591 24.8182C7.85591 24.5047 7.98025 24.2041 8.20157 23.9825C8.4229 23.7609 8.72308 23.6364 9.03608 23.6364H30.2793C30.5923 23.6364 30.8925 23.7609 31.1138 23.9825C31.3351 24.2041 31.4595 24.5047 31.4595 24.8182ZM35 13V16.5455C35 16.8589 34.8757 17.1595 34.6543 17.3811C34.433 17.6028 34.1328 17.7273 33.8198 17.7273H7.8264C6.55664 17.7317 5.31966 17.3238 4.30098 16.5647C3.2823 15.8056 2.53681 14.7363 2.1763 13.5171L0.0962364 6.58865C-0.00706372 6.23409 -0.0275295 5.86048 0.0364221 5.49673C0.100374 5.13298 0.247029 4.78884 0.465042 4.49092C0.687978 4.19707 0.975757 3.95882 1.30589 3.79481C1.63602 3.6308 1.99955 3.54546 2.36808 3.54547H4.90546C5.07776 3.54583 5.24783 3.58443 5.40343 3.65851C5.55903 3.73259 5.6963 3.8403 5.80535 3.97388L8.40174 7.09092H10.9391L9.61142 3.11706C9.4919 2.76116 9.45877 2.38187 9.51478 2.01059C9.57079 1.63932 9.71432 1.28675 9.93349 0.982084C10.1527 0.677419 10.4412 0.429425 10.7751 0.258643C11.109 0.0878608 11.4788 -0.000795625 11.8538 1.61617e-05H14.3469C14.5108 -0.000847528 14.673 0.0329149 14.823 0.0990985C14.973 0.165282 15.1073 0.262398 15.2173 0.384107L21.3542 7.09092H29.0991C30.6641 7.09092 32.165 7.71348 33.2717 8.82165C34.3783 9.92982 35 11.4328 35 13ZM32.6396 13C32.6358 12.0609 32.2615 11.1614 31.5984 10.4973C30.9352 9.83323 30.0369 9.45844 29.0991 9.45456H20.8379C20.674 9.45542 20.5117 9.42166 20.3618 9.35547C20.2118 9.28929 20.0774 9.19217 19.9675 9.07047L13.8306 2.36365H11.8538L13.6978 7.90342C13.7555 8.08109 13.7709 8.26983 13.7428 8.45453C13.7146 8.63924 13.6436 8.81476 13.5355 8.96706C13.4265 9.11946 13.2825 9.24333 13.1156 9.32818C12.9487 9.41304 12.7638 9.45638 12.5766 9.45456H7.85591C7.68361 9.4542 7.51354 9.41559 7.35794 9.34151C7.20233 9.26743 7.06507 9.15973 6.95602 9.02615L4.35963 5.9091H2.35333L4.43339 12.8375C4.65026 13.5693 5.09811 14.2109 5.70982 14.6664C6.32153 15.1218 7.06416 15.3664 7.8264 15.3636H32.6396V13Z" fill="white"/>
</svg>
