<svg width="33" height="26" viewBox="0 0 33 26" fill="none" xmlns="http://www.w3.org/2000/svg">
<path fill-rule="evenodd" clip-rule="evenodd" d="M8.06742 3.10889C5.79809 3.10889 3.95844 4.94854 3.95844 7.21788V18.4359C3.95844 20.7052 5.79809 22.5449 8.06742 22.5449H24.8944C27.1637 22.5449 29.0034 20.7052 29.0034 18.4359V7.21788C29.0034 4.94854 27.1637 3.10889 24.8944 3.10889H8.06742ZM0.958435 7.21788C0.958435 3.29169 4.14124 0.108887 8.06742 0.108887H24.8944C28.8206 0.108887 32.0034 3.29169 32.0034 7.21788V18.4359C32.0034 22.362 28.8206 25.5449 24.8944 25.5449H8.06742C4.14124 25.5449 0.958435 22.362 0.958435 18.4359V7.21788Z" fill="#F8F8F8"/>
<path fill-rule="evenodd" clip-rule="evenodd" d="M12.9373 7.31482C13.4076 7.04856 13.9847 7.05584 14.4481 7.33388L21.4594 11.5406C21.9112 11.8117 22.1876 12.3 22.1876 12.8269C22.1876 13.3538 21.9112 13.842 21.4594 14.1131L14.4481 18.3198C13.9847 18.5979 13.4076 18.6052 12.9373 18.3389C12.4671 18.0726 12.1764 17.574 12.1764 17.0336V8.62012C12.1764 8.07971 12.4671 7.58108 12.9373 7.31482ZM15.1764 11.2694V14.3843L17.7722 12.8269L15.1764 11.2694Z" fill="#F8F8F8"/>
</svg>
